<?xml version="1.0" encoding="utf-8"?>
<svg width="119" height="48" xmlns="http://www.w3.org/2000/svg" xmlns:bx="https://boxy-svg.com">
  <defs>
    <style bx:fonts="Nunito">@import url(https://fonts.googleapis.com/css2?family=Nunito%3Aital%2Cwght%400%2C200..1000%3B1%2C200..1000&amp;display=swap);</style>
  </defs>
  <g class="layer">
    <title>Layer 1</title>
    <path d="m113.97,36.37c-0.68,0 -1.23,-0.21 -1.65,-0.63c-0.42,-0.42 -0.62,-0.96 -0.62,-1.61c0,-0.65 0.2,-1.18 0.62,-1.57c0.42,-0.42 0.97,-0.63 1.65,-0.63c0.68,0 1.21,0.21 1.61,0.63c0.4,0.39 0.6,0.92 0.6,1.57c0,0.65 -0.2,1.19 -0.6,1.61c-0.4,0.42 -0.93,0.63 -1.61,0.63z" fill="#6619B3" id="svg_1"/>
    <path d="M 20.413 19.627 C 20.98 21.184 20.404 22.758 19.143 23.139 C 17.881 23.52 16.397 22.579 15.839 21.022 C 15.281 19.457 15.848 17.89 17.118 17.502 C 18.38 17.12 19.864 18.069 20.421 19.627 L 20.413 19.627 Z M 15.479 23.463 C 16.217 24.639 16.046 26.01 15.076 26.513 C 14.114 27.025 12.741 26.481 12.004 25.304 C 11.266 24.128 11.437 22.758 12.398 22.255 C 13.36 21.744 14.733 22.287 15.47 23.463 L 15.479 23.463 Z M 14.26 30.812 C 16.311 25.686 19.958 24.38 21.58 24.38 C 23.193 24.38 26.84 25.686 28.891 30.812 C 29.037 31.169 29.098 31.542 29.098 31.924 L 29.098 31.98 C 29.098 32.913 28.274 33.676 27.27 33.676 C 26.815 33.676 26.378 33.627 25.931 33.522 L 22.482 32.726 C 21.89 32.589 21.263 32.589 20.662 32.726 L 17.213 33.522 C 16.783 33.627 16.337 33.676 15.882 33.676 C 14.87 33.676 14.054 32.913 14.054 31.98 L 14.054 31.924 C 14.054 31.542 14.114 31.169 14.252 30.812 L 14.26 30.812 Z M 28.067 26.504 C 27.107 26.002 26.926 24.631 27.664 23.455 C 28.402 22.28 29.784 21.736 30.736 22.247 C 31.698 22.75 31.878 24.12 31.139 25.296 C 30.402 26.473 29.02 27.016 28.067 26.504 Z M 23.692 23.131 C 22.43 22.75 21.855 21.176 22.412 19.619 C 22.979 18.062 24.455 17.112 25.716 17.494 C 26.978 17.883 27.553 19.449 26.986 21.014 C 26.429 22.571 24.952 23.52 23.682 23.131 L 23.692 23.131 Z" fill="#6619B3" id="svg_2" style=""/>
    <text fill="rgb(51, 51, 51)" font-family="Arial, sans-serif" font-size="4.9px" id="svg_4" x="94.57" y="7.39" style="white-space: pre;"/>
    <text fill="rgb(51, 51, 51)" font-family="Arial, sans-serif" font-size="4.9px" id="svg_5" x="113.07" y="-9.15" style="white-space: pre;"/>
    <text style="fill: rgb(255, 255, 255); font-family: Nunito; font-size: 28px; font-weight: 700; white-space: pre; transform-box: fill-box; transform-origin: 46.3167px 19.0884px;" transform="matrix(0.837238, 0.006261, 0.007461, 0.799293, -3.000228, -3.409704)" x="28.274" y="40.798">Petfect</text>
  </g>
</svg>