<?xml version="1.0"?>
<svg width="119" height="48" xmlns="http://www.w3.org/2000/svg" xmlns:svg="http://www.w3.org/2000/svg">
 <defs>
  <style>@import url(https://fonts.googleapis.com/css2?family=Nunito%3Aital%2Cwght%400%2C200..1000%3B1%2C200..1000&amp;display=swap);</style>
 </defs>
 <g class="layer">
  <title>Layer 1</title>
  <path d="m113.97,36.37c-0.68,0 -1.23,-0.21 -1.65,-0.63c-0.42,-0.42 -0.62,-0.96 -0.62,-1.61c0,-0.65 0.2,-1.18 0.62,-1.57c0.42,-0.42 0.97,-0.63 1.65,-0.63c0.68,0 1.21,0.21 1.61,0.63c0.4,0.39 0.6,0.92 0.6,1.57c0,0.65 -0.2,1.19 -0.6,1.61c-0.4,0.42 -0.93,0.63 -1.61,0.63z" fill="#6619B3" id="svg_1"/>
  <path d="m18.88,18.25c0.66,1.92 -0.01,3.86 -1.48,4.33c-1.47,0.47 -3.2,-0.69 -3.85,-2.61c-0.65,-1.93 0.01,-3.86 1.49,-4.34c1.47,-0.47 3.2,0.7 3.85,2.62zm-5.75,4.73c0.86,1.45 0.66,3.14 -0.47,3.76c-1.12,0.63 -2.72,-0.04 -3.58,-1.49c-0.86,-1.45 -0.66,-3.14 0.46,-3.76c1.12,-0.63 2.72,0.04 3.58,1.49l0,0zm-1.42,9.06c2.39,-6.32 6.64,-7.93 8.53,-7.93c1.88,0 6.13,1.61 8.52,7.93c0.17,0.44 0.24,0.9 0.24,1.37l0,0.07c0,1.15 -0.96,2.09 -2.13,2.09c-0.53,0 -1.04,-0.06 -1.56,-0.19l-4.02,-0.98c-0.69,-0.17 -1.42,-0.17 -2.12,0l-4.02,0.98c-0.5,0.13 -1.02,0.19 -1.55,0.19c-1.18,0 -2.13,-0.94 -2.13,-2.09l0,-0.07c0,-0.47 0.07,-0.93 0.23,-1.37zm16.09,-5.31c-1.12,-0.62 -1.33,-2.31 -0.47,-3.76c0.86,-1.45 2.47,-2.12 3.58,-1.49c1.12,0.62 1.33,2.31 0.47,3.76c-0.86,1.45 -2.47,2.12 -3.58,1.49zm-5.1,-4.16c-1.47,-0.47 -2.14,-2.41 -1.49,-4.33c0.66,-1.92 2.38,-3.09 3.85,-2.62c1.47,0.48 2.14,2.41 1.48,4.34c-0.65,1.92 -2.37,3.09 -3.85,2.61z" fill="#6619B3" id="svg_2"/>
  <text fill="rgb(51, 51, 51)" font-family="Nunito" font-size="37px" font-weight="733.5" id="svg_3" transform="matrix(0.610695 0 0 0.665091 41.3041 11.3426)" x="-11.1" y="36.21">Petfect</text>
  <text fill="rgb(51, 51, 51)" font-family="Arial, sans-serif" font-size="4.9px" id="svg_4" x="94.57" y="7.39"/>
  <text fill="rgb(51, 51, 51)" font-family="Arial, sans-serif" font-size="4.9px" id="svg_5" x="113.07" y="-9.15"/>
 </g>
</svg>